<svg width="42" height="42" viewBox="0 0 42 42" fill="none" xmlns="http://www.w3.org/2000/svg">
<path fill-rule="evenodd" clip-rule="evenodd" d="M18.9625 5.95105C20.4913 5.01664 22.4531 5.01665 23.982 5.95105L25.7652 7.0409C28.2651 8.56881 31.1137 8.90985 33.9746 9.25241C34.8995 9.36318 35.8257 9.47405 36.7417 9.62525C36.7417 9.62525 36.7619 11.2296 36.7407 11.9579L36.5579 18.2151C36.4011 23.5813 34.0147 28.67 29.9211 32.3674C27.9899 34.1116 25.9926 35.6872 23.6976 36.9964C22.3368 37.7726 20.6534 37.8341 19.2341 37.1594C16.5842 35.8997 14.2375 34.3023 12.0952 32.3674C8.00156 28.67 5.61521 23.5813 5.45842 18.2151L5.2762 11.9779C5.25461 11.2392 5.2762 9.62525 5.2762 9.62525C6.01993 9.5374 6.77797 9.46538 7.54175 9.39285C10.9135 9.07242 14.3971 8.74137 17.2549 6.99471L18.9625 5.95105ZM19.2502 19.2502V13.1252H22.7502V19.2502H28.8752V22.7502H22.7502V28.8752H19.2502V22.7502H13.1252V19.2502H19.2502Z" fill="#1688E8"/>
</svg>
