<svg width="42" height="42" viewBox="0 0 42 42" fill="none" xmlns="http://www.w3.org/2000/svg">
<path fill-rule="evenodd" clip-rule="evenodd" d="M21 12.2502C21 7.41775 24.9175 3.50024 29.75 3.50024C34.5825 3.50024 38.5 7.41775 38.5 12.2502C38.5 17.0827 34.5825 21.0002 29.75 21.0002H21.875C21.3917 21.0002 21 20.6085 21 20.1252V12.2502ZM6.80556 7.87524C5.46676 7.87524 4.375 8.96698 4.375 10.3058C4.375 25.3957 16.6045 37.6252 31.6944 37.6252C33.0333 37.6252 34.125 36.5335 34.125 35.1947V29.7658C34.125 28.427 33.0333 27.3352 31.6944 27.3352C29.8605 27.3352 28.0724 27.0396 26.4197 26.4941C25.5594 26.2014 24.5899 26.424 23.9357 27.0782L20.9707 30.0433C17.1699 27.9603 14.0255 24.8267 11.9558 21.0308L14.9221 18.0645C15.5982 17.3883 15.7915 16.4384 15.527 15.5968L15.525 15.5907L15.523 15.5847C14.9766 13.9304 14.6806 12.1564 14.6806 10.3058C14.6806 8.96698 13.5888 7.87524 12.25 7.87524H6.80556ZM28.875 16.6252V13.1252H25.375V11.3752H28.875V7.87524H30.625V11.3752H34.125V13.1252H30.625V16.6252H28.875Z" fill="#1688E8"/>
</svg>
