<svg width="42" height="42" viewBox="0 0 42 42" fill="none" xmlns="http://www.w3.org/2000/svg">
<path d="M21 10.5367C21 7.61708 18.6332 5.25024 15.7135 5.25024H10.5365C7.61683 5.25024 5.25 7.61708 5.25 10.5367C5.25 13.4563 7.61683 15.8231 10.5365 15.8231H11.55V18.3752C11.55 18.3752 21 17.0992 21 10.5367Z" fill="#1688E8"/>
<path d="M16.1875 24.5002C16.1875 26.434 14.6213 28.0002 12.6875 28.0002C10.7537 28.0002 9.1875 26.434 9.1875 24.5002C9.1875 22.5665 10.7537 21.0002 12.6875 21.0002C14.6213 21.0002 16.1875 22.5665 16.1875 24.5002Z" fill="#1688E8"/>
<path d="M12.6875 29.7502C10.2052 29.7502 5.25 31.0009 5.25 33.4836V36.7502H20.125V33.4836C20.125 31.0009 15.1698 29.7502 12.6875 29.7502Z" fill="#1688E8"/>
<path d="M29.3125 28.0002C31.2463 28.0002 32.8125 26.434 32.8125 24.5002C32.8125 22.5665 31.2463 21.0002 29.3125 21.0002C27.3787 21.0002 25.8125 22.5665 25.8125 24.5002C25.8125 26.434 27.3787 28.0002 29.3125 28.0002Z" fill="#1688E8"/>
<path d="M29.3125 29.7502C26.8302 29.7502 21.875 31.0009 21.875 33.4836V36.7502H36.75V33.4836C36.75 31.0009 31.7948 29.7502 29.3125 29.7502Z" fill="#1688E8"/>
<path d="M28.0365 6.12524C25.1168 6.12524 22.75 8.49208 22.75 11.4117C22.75 17.9742 31.15 19.2502 31.15 19.2502V16.6981H31.4635C34.3832 16.6981 36.75 14.3313 36.75 11.4117C36.75 8.49208 34.3832 6.12524 31.4635 6.12524H28.0365Z" fill="#1688E8"/>
</svg>
