<svg width="42" height="42" viewBox="0 0 42 42" fill="none" xmlns="http://www.w3.org/2000/svg">
<path fill-rule="evenodd" clip-rule="evenodd" d="M11.3919 10.4868C11.4422 9.86607 11.6039 9.27632 11.8573 8.73682H5.25V10.9082L8.75 13.5601V36.7638H33.25V13.5909L37.1875 10.939V8.73682H21.3927C21.6461 9.27632 21.8078 9.86607 21.8581 10.4868H34.7261L31.5 12.6596V35.0138H10.5V12.6905L7.59164 10.4868H11.3919Z" fill="#1688E8"/>
<path fill-rule="evenodd" clip-rule="evenodd" d="M8.75 12.0315L6.5625 9.18774H11.5937L14.4375 14.8752H18.375L21.4375 9.18774H35.875L33.25 12.6877V35.8752H29.75V21.0002H22.75V35.8752H8.75V12.0315ZM12.25 21.0002H18.375V27.1252H12.25V21.0002Z" fill="#1688E8"/>
<path d="M5.25 35.8752C5.25 36.3585 5.64175 36.7502 6.125 36.7502H35.875C36.3583 36.7502 36.75 36.3585 36.75 35.8752C36.75 35.392 36.3583 35.0002 35.875 35.0002H6.125C5.64175 35.0002 5.25 35.392 5.25 35.8752Z" fill="#1688E8"/>
<path fill-rule="evenodd" clip-rule="evenodd" d="M21.875 10.5002C21.875 13.3997 19.5245 15.7502 16.625 15.7502C13.7255 15.7502 11.375 13.3997 11.375 10.5002C11.375 7.60075 13.7255 5.25024 16.625 5.25024C19.5245 5.25024 21.875 7.60075 21.875 10.5002ZM17.5 7.87524V9.62524H19.25V11.3752H17.5V13.1252H15.75V11.3752H14V9.62524H15.75V7.87524H17.5Z" fill="#1688E8"/>
</svg>
