<svg width="42" height="42" viewBox="0 0 42 42" fill="none" xmlns="http://www.w3.org/2000/svg">
<path fill-rule="evenodd" clip-rule="evenodd" d="M10.5 7.87524C10.5 6.4255 11.6752 5.25024 13.125 5.25024H20.125C21.5748 5.25024 22.75 6.4255 22.75 7.87524H25.375C26.8248 7.87524 28 9.05046 28 10.5002V34.1252C28 35.575 26.8248 36.7502 25.375 36.7502H7.875C6.42526 36.7502 5.25 35.575 5.25 34.1252V10.5002C5.25 9.05046 6.42526 7.87524 7.875 7.87524H10.5ZM13.125 7.00024C12.6417 7.00024 12.25 7.392 12.25 7.87524V9.62524C12.25 10.1085 12.6417 10.5002 13.125 10.5002H20.125C20.6083 10.5002 21 10.1085 21 9.62524V7.87524C21 7.392 20.6083 7.00024 20.125 7.00024H13.125ZM12.25 15.7502V18.3752H9.625V20.1252H12.25V22.7502H14V20.1252H16.625V18.3752H14V15.7502H12.25ZM10.5 25.3752C10.0167 25.3752 9.625 25.767 9.625 26.2502C9.625 26.7335 10.0167 27.1252 10.5 27.1252H22.75C23.2333 27.1252 23.625 26.7335 23.625 26.2502C23.625 25.767 23.2333 25.3752 22.75 25.3752H10.5ZM9.625 30.6252C9.625 30.142 10.0167 29.7502 10.5 29.7502H22.75C23.2333 29.7502 23.625 30.142 23.625 30.6252C23.625 31.1085 23.2333 31.5002 22.75 31.5002H10.5C10.0167 31.5002 9.625 31.1085 9.625 30.6252Z" fill="#1688E8"/>
<path d="M31.5 15.7502C31.5 14.3005 32.6752 13.1252 34.125 13.1252C35.5748 13.1252 36.75 14.3005 36.75 15.7502V18.3752H31.5V15.7502Z" fill="#1688E8"/>
<path d="M31.5 33.2502V20.1252H36.75V33.2502L34.125 36.7502L31.5 33.2502Z" fill="#1688E8"/>
</svg>
