<svg width="1440" height="736" viewBox="0 0 1440 736" fill="none" xmlns="http://www.w3.org/2000/svg">
<rect width="1440" height="736" fill="white"/>
<rect width="1440" height="736" fill="url(#paint0_linear_2402_8667)"/>
<g clip-path="url(#clip0_2402_8667)">
<path d="M0 0H1440V559.069L0 735V0Z" fill="#F2F7FF"/>
<path d="M0 608.016L420 555.499V619.499L0 672.016V608.016Z" fill="#57D5EA"/>
<path d="M-152 691.005L268 638.488V702.488L-152 755.005V691.005Z" fill="#3F93DA"/>
<g opacity="0.6" filter="url(#filter0_f_2402_8667)">
<ellipse cx="1232" cy="295" rx="128" ry="114" fill="#56CCF2"/>
</g>
<path d="M1260 514.005L1680 461.488V529.488L1260 582.005V514.005Z" fill="#57D5EA"/>
<path d="M988 420.517L1408 368V432L988 484.517V420.517Z" fill="#7AC1FD"/>
<path d="M828 504.808L1440 428V492L828 568.808V504.808Z" fill="#3F93DA"/>
</g>
<mask id="mask0_2402_8667" style="mask-type:luminance" maskUnits="userSpaceOnUse" x="840" y="72" width="488" height="494">
<path d="M1328 72H840V566H1328V72Z" fill="white"/>
</mask>
<g mask="url(#mask0_2402_8667)">
<path d="M1102.18 282.926C1102.18 282.926 1123.92 298.213 1122.35 354.275C1118.85 479.27 1137.39 575.193 1137.39 575.193L1096.87 580.257C1096.87 580.257 1091.98 514.003 1081.04 435.865C1070.1 357.726 1073.2 291.679 1102.18 282.926Z" fill="#DFEEEF"/>
<path d="M923.225 533.937L913.096 641.141L1013.26 648.737L1027.53 602.311L1033.68 648.737L1125.85 644.518L1106.24 511.989L923.225 533.937Z" fill="#07003D"/>
<path d="M1001.01 545.233C1001.01 545.233 1049.98 545.891 1069.6 541.956C1089.23 538.021 1077.7 282.29 1077.7 282.29L1040.5 246.233L977.04 241.238C977.04 241.238 982.769 309.295 983.07 310.561C983.369 311.827 1001.01 545.233 1001.01 545.233Z" fill="#2866BF"/>
<path d="M1043.53 246.35C1043.53 246.35 1092.59 277.565 1099.75 280.82C1106.91 284.076 1116.2 316.315 1107.76 350.844C1099.32 385.371 1124.34 553.351 1124.34 553.351C1124.34 553.351 1097.2 564.747 1073.57 553.351C1049.94 541.956 1050.08 452.369 1055.07 408.319C1060.06 364.269 1047.67 257.84 1043.53 246.35Z" fill="white"/>
<path d="M1039.32 234.169C1039.32 234.169 1049.16 245.14 1059.32 256.326C1069.47 267.511 1076.43 292.835 1076.43 292.835L1057.88 297.63L1077.7 314.895C1077.7 314.895 1071.02 343.724 1054.26 416.41C1055.65 358.038 1044.04 278.466 1039.32 234.169Z" fill="#DFEEEF"/>
<path d="M1039.32 234.169C1039.32 234.169 1049.16 245.14 1059.32 256.326C1069.47 267.511 1075.17 286.043 1075.17 286.043L1056.1 291.569L1076.43 306.349C1076.43 306.349 1071.02 343.723 1054.26 416.408C1055.65 358.038 1044.04 278.466 1039.32 234.169Z" fill="#F0F6F7"/>
<path d="M1053.03 133.296L1061.73 132.663C1061.73 132.663 1063.44 155.497 1058.69 167.101C1047.86 160.751 1042.1 132.769 1042.42 132.663C1042.74 132.558 1044.9 130.342 1053.03 133.296Z" fill="#07003D"/>
<path d="M969.438 163.229C969.438 163.229 987.156 196.779 989.378 209.218C991.086 203.541 988.578 183.777 988.578 183.777L969.438 163.229Z" fill="#07003D"/>
<path d="M1038.68 222.153C1038.68 222.153 1035.27 247.937 1040.5 263.633C1028.9 277.511 1011.38 270.685 1001.37 259.31C991.362 247.935 985.219 241.793 985.219 241.793C985.219 241.793 992.726 210.626 986.356 186.511C998.186 181.052 1038.68 222.153 1038.68 222.153Z" fill="#FFB0A0"/>
<path d="M1013.2 233.376C999.024 225.169 994.024 210.231 988.168 196.089C987.762 192.835 987.176 189.615 986.356 186.511C998.186 181.052 1038.68 222.153 1038.68 222.153C1038.68 222.153 1037.92 227.935 1037.67 235.687C1030.03 238.426 1021.02 237.546 1013.2 233.376Z" fill="#F7A192"/>
<path d="M1052.7 127.065C1052.7 127.065 1052.78 141.048 1060 162.748C1067.22 184.447 1066.08 213.854 1051.72 222.725C1037.37 231.595 996.155 229.752 987.509 186.088C978.861 142.425 983.1 117.153 998.066 110.75C1013.03 104.347 1049.31 104.961 1052.7 127.065Z" fill="#FFB0A0"/>
<path d="M995.646 206.776C994.346 204.314 993.206 201.607 992.274 198.609C989.851 189.927 990.639 181.042 990.639 181.042C990.639 181.042 992.34 180.142 994.332 179.671C1000.03 196.448 1012.06 201.195 1016.49 197.249C1020.92 193.302 1027.57 188.851 1046.69 189.503C1056.01 189.82 1061.65 191.276 1064.22 194.104C1063.81 201.544 1062.28 208.455 1059.48 213.879C1057.24 217.758 1054.57 220.963 1051.72 222.725C1040.12 229.896 1010.96 230.054 995.646 206.776Z" fill="#C99893"/>
<path d="M1043.87 209.645C1043.87 209.645 1036.03 212.652 1031.52 205.766C1033.11 213.76 1040.15 214.472 1043.87 209.645Z" fill="#B27C79"/>
<path d="M1025.92 167.209C1025.92 167.209 1025.27 173.374 1019.35 174.262C1013.42 175.151 1010.88 169.355 1010.88 169.355C1010.88 169.355 1014.06 173.522 1019.05 172.576C1024.04 171.633 1025.92 167.209 1025.92 167.209Z" fill="#F7A192"/>
<path d="M1045.19 166.268C1045.19 166.268 1046.28 170.495 1050.47 171.576C1054.67 172.658 1057.25 167.494 1057.25 167.494C1057.25 167.494 1054.12 171.119 1050.81 170.492C1047.5 169.864 1045.19 166.268 1045.19 166.268Z" fill="#F7A192"/>
<path d="M998.064 110.75C1013.03 104.347 1049.31 104.961 1052.7 127.065C1052.7 127.065 1052.74 133.608 1055.07 144.685C1039.57 148.83 1023.09 147 1008.2 142.879C1008.17 142.5 1008.15 142.125 1008.09 141.733C1008.15 142.125 1008.17 142.502 1008.2 142.879C1007.84 142.78 1007.48 142.688 1007.13 142.586C1007.48 142.687 1007.84 142.78 1008.2 142.879C1008.51 146.93 1007.35 150.204 1004.66 153.379C996.443 162.289 990.57 172.142 993.733 184.083C991.169 175.451 989.265 164.963 983.565 158.853C981.392 131.793 986.546 115.678 998.064 110.75Z" fill="#F7A192"/>
<path d="M987.442 170.588C987.442 170.588 978.597 157.084 972.116 163.872C965.635 170.66 976.265 185.782 982.376 188.064C988.487 190.347 990.127 185.487 989.87 182.128C989.613 178.769 989.261 174.494 987.442 170.588Z" fill="#FFB0A0"/>
<path d="M978.888 181.886C978.888 181.886 974.009 175.791 972.9 171.433C971.792 167.075 977.729 165.605 979.763 167.17C981.797 168.735 983.855 173.719 984.633 175.968C985.41 178.217 987.405 183.647 986.446 184.774C985.486 185.902 980.402 183.902 980.219 178.669C980.168 177.197 982.955 176.097 982.955 176.097C980.957 173.927 978.138 174.064 978.221 176.5C977.314 173.863 980.067 170.988 982.352 173.479C979.362 168.819 977.708 167.905 975.886 168.822C974.064 169.735 973.805 173.79 978.888 181.886Z" fill="#F99585"/>
<path d="M1025.41 153.401C1025.41 153.401 1019.96 150.439 1015.79 153.463C1011.61 156.486 1010.79 157.867 1010.4 158.639C1010.02 159.412 1011.61 159.966 1015.61 158.146C1019.62 156.327 1022.36 157.501 1024.69 156.969C1027.02 156.435 1026.63 153.931 1025.41 153.401Z" fill="#0E004D"/>
<path d="M1047.08 154.379C1047.08 154.379 1052.4 151.212 1056.7 154.056C1059.65 156.006 1060.14 157.847 1059.79 158.936C1059.52 159.759 1058.18 159.157 1056.35 158.494C1052.22 156.994 1050.3 158.354 1047.94 157.914C1045.59 157.473 1045.88 154.956 1047.08 154.379Z" fill="#0E004D"/>
<path d="M1044.6 158.286C1044.6 158.286 1042.64 162.476 1043.26 165.475C1043.88 168.475 1052.84 182.453 1055.72 185.815C1058.6 189.177 1044.32 191.032 1038.15 187.889C1033.64 185.414 1040.34 181.597 1040.34 181.597" fill="#FFB0A0"/>
<path d="M1044.6 158.286C1044 159.39 1043.52 160.561 1043.18 161.786C1042.86 163.01 1042.63 164.302 1042.85 165.651C1043.18 166.99 1043.74 168.1 1044.28 169.247C1044.83 170.387 1045.44 171.487 1046.04 172.592C1048.5 176.984 1051.14 181.221 1054.16 185.309C1054.34 185.565 1054.55 185.815 1054.76 186.068C1054.85 186.186 1054.99 186.339 1055.05 186.426C1055.08 186.494 1055.17 186.571 1055.17 186.607C1055.21 186.715 1055.21 186.654 1055.17 186.74C1055.18 186.772 1055.09 186.838 1055.06 186.898C1054.97 186.959 1054.92 187.032 1054.81 187.096C1054.01 187.646 1052.8 187.968 1051.65 188.213C1049.3 188.696 1046.83 188.805 1044.4 188.693C1043.19 188.627 1041.98 188.482 1040.8 188.223C1039.65 187.949 1038.41 187.625 1037.58 186.941C1037.15 186.606 1036.91 186.16 1036.95 185.642C1036.99 185.121 1037.27 184.577 1037.63 184.1C1038.37 183.143 1039.33 182.322 1040.34 181.596C1039.22 182.157 1038.15 182.844 1037.26 183.791C1036.82 184.264 1036.41 184.825 1036.26 185.548C1036.11 186.282 1036.45 187.106 1036.96 187.589C1037.46 188.105 1038.08 188.428 1038.67 188.7C1039.27 188.972 1039.88 189.19 1040.5 189.379C1041.74 189.755 1043.01 189.96 1044.29 190.109C1046.84 190.4 1049.41 190.324 1051.97 189.907C1053.26 189.651 1054.53 189.386 1055.83 188.553C1056.15 188.328 1056.5 188.053 1056.76 187.569C1056.9 187.342 1056.96 187.035 1056.99 186.737C1056.98 186.438 1056.94 186.135 1056.82 185.907C1056.73 185.639 1056.58 185.489 1056.45 185.293L1056.16 184.92C1055.97 184.688 1055.78 184.456 1055.6 184.207C1054.11 182.261 1052.72 180.19 1051.33 178.128C1049.93 176.071 1048.59 173.971 1047.26 171.875C1046.6 170.823 1045.96 169.759 1045.33 168.691C1044.71 167.635 1044.08 166.518 1043.71 165.457C1043.4 164.352 1043.46 163.099 1043.65 161.89C1043.86 160.676 1044.18 159.466 1044.6 158.286Z" fill="#F99585"/>
<path d="M1045.44 165.027C1045.44 165.027 1047.05 161.505 1051.04 161.665C1055.04 161.827 1057 165.981 1057 165.981C1055.65 165.796 1054.58 166.375 1050.6 166.554C1046.63 166.732 1045.44 165.027 1045.44 165.027Z" fill="white"/>
<mask id="mask1_2402_8667" style="mask-type:luminance" maskUnits="userSpaceOnUse" x="1045" y="161" width="12" height="6">
<path d="M1045.44 165.027C1045.44 165.027 1047.05 161.505 1051.04 161.665C1055.04 161.827 1057 165.981 1057 165.981C1055.65 165.796 1054.58 166.375 1050.6 166.554C1046.63 166.732 1045.44 165.027 1045.44 165.027Z" fill="white"/>
</mask>
<g mask="url(#mask1_2402_8667)">
<path d="M1046.77 163.464C1046.17 165.016 1046.93 166.766 1048.48 167.374C1050.03 167.982 1051.78 167.218 1052.39 165.666C1053 164.114 1052.24 162.364 1050.68 161.756C1049.13 161.148 1047.38 161.912 1046.77 163.464Z" fill="#0E004D"/>
<path d="M1048.23 164.035C1047.94 164.781 1048.31 165.621 1049.05 165.914C1049.8 166.206 1050.64 165.838 1050.93 165.093C1051.22 164.348 1050.86 163.508 1050.11 163.214C1049.36 162.923 1048.52 163.29 1048.23 164.035Z" fill="#05002D"/>
<path d="M1048.03 163.274C1047.9 163.601 1048.06 163.97 1048.39 164.097C1048.71 164.225 1049.08 164.063 1049.21 163.738C1049.34 163.411 1049.18 163.042 1048.85 162.915C1048.52 162.786 1048.16 162.948 1048.03 163.274Z" fill="white"/>
</g>
<path d="M1057.49 166.324C1056.92 165.125 1056.15 164.003 1055.15 163.082C1054.17 162.161 1052.91 161.377 1051.45 161.245C1050.04 161.13 1048.62 161.48 1047.45 162.253C1046.29 163.022 1045.44 164.191 1045.04 165.455C1045.76 164.345 1046.73 163.449 1047.82 162.861C1048.91 162.297 1050.17 162.037 1051.37 162.15C1051.96 162.185 1052.55 162.37 1053.1 162.638C1053.66 162.883 1054.18 163.24 1054.69 163.62C1055.7 164.394 1056.63 165.317 1057.49 166.324Z" fill="#07003D"/>
<path d="M1045.21 164.61C1045.7 163.4 1046.49 162.317 1047.51 161.569C1048.53 160.814 1049.79 160.437 1051.06 160.436C1052.33 160.376 1053.58 160.748 1054.69 161.375C1055.79 162.021 1056.75 162.939 1057.38 164.088C1056.92 162.851 1055.98 161.816 1054.87 161.078C1053.75 160.353 1052.4 159.953 1051.05 159.982C1049.71 160.019 1048.34 160.426 1047.29 161.295C1046.25 162.147 1045.52 163.335 1045.21 164.61Z" fill="#AD625A"/>
<path d="M1025.75 165.869C1025.75 165.869 1023.62 162.361 1018.62 162.683C1013.62 163.006 1011.3 167.294 1011.3 167.294C1012.98 167.053 1014.21 167.599 1019.19 167.622C1024.18 167.645 1025.75 165.869 1025.75 165.869Z" fill="white"/>
<mask id="mask2_2402_8667" style="mask-type:luminance" maskUnits="userSpaceOnUse" x="1011" y="162" width="15" height="6">
<path d="M1025.75 165.869C1025.75 165.869 1023.62 162.361 1018.62 162.683C1013.62 163.006 1011.3 167.294 1011.3 167.294C1012.98 167.053 1014.02 167.599 1019 167.623C1023.99 167.647 1025.75 165.869 1025.75 165.869Z" fill="white"/>
</mask>
<g mask="url(#mask2_2402_8667)">
<path d="M1014.58 165.214C1014.25 166.848 1015.3 168.439 1016.94 168.77C1018.57 169.101 1020.16 168.045 1020.49 166.413C1020.82 164.779 1019.77 163.188 1018.14 162.857C1016.5 162.525 1014.91 163.581 1014.58 165.214Z" fill="#0E004D"/>
<path d="M1016.12 165.526C1015.96 166.311 1016.47 167.075 1017.25 167.234C1018.03 167.393 1018.8 166.886 1018.96 166.102C1019.12 165.318 1018.61 164.553 1017.82 164.394C1017.04 164.234 1016.28 164.74 1016.12 165.526Z" fill="#05002D"/>
<path d="M1015.78 164.81C1015.71 165.154 1015.94 165.488 1016.28 165.558C1016.62 165.628 1016.96 165.405 1017.03 165.062C1017.1 164.718 1016.87 164.383 1016.53 164.314C1016.19 164.244 1015.85 164.466 1015.78 164.81Z" fill="white"/>
</g>
<path d="M1025.75 165.869C1024.95 164.569 1023.71 163.506 1022.25 162.898C1020.8 162.249 1019.14 162.128 1017.58 162.357C1016.03 162.596 1014.51 163.238 1013.29 164.248C1012.08 165.259 1011.18 166.636 1010.84 168.128C1011.51 166.763 1012.55 165.65 1013.72 164.811C1014.92 164.001 1016.29 163.462 1017.73 163.255C1019.15 163.032 1020.62 163.096 1022 163.559C1023.37 164.011 1024.67 164.794 1025.75 165.869Z" fill="#07003D"/>
<path d="M1025.51 164.292C1024.84 162.914 1023.61 161.824 1022.2 161.182C1020.77 160.541 1019.16 160.427 1017.62 160.625C1016.09 160.832 1014.58 161.4 1013.35 162.343C1012.14 163.305 1011.11 164.563 1010.72 166.052C1010.98 165.338 1011.42 164.705 1011.9 164.136C1012.39 163.56 1012.94 163.054 1013.55 162.625C1014.17 162.212 1014.83 161.861 1015.52 161.589C1016.22 161.353 1016.94 161.147 1017.69 161.075C1018.42 160.951 1019.17 160.948 1019.91 160.996C1020.64 161.08 1021.37 161.229 1022.07 161.502C1023.44 162.05 1024.68 163.014 1025.51 164.292Z" fill="#AD625A"/>
<path d="M1052.39 198.098C1052.39 198.098 1039.99 201.433 1028.61 197.839C1031.18 204.487 1042.92 214.965 1052.39 198.098Z" fill="#752727"/>
<path d="M1046.25 205.368C1040.12 209.56 1034.05 205.819 1030.71 201.471C1040.4 200.287 1045.02 204.105 1046.25 205.368Z" fill="#B23030"/>
<path d="M1050.03 198.607C1049.7 199.352 1048.82 200.622 1046.61 201.194C1043.92 201.888 1036.09 202.628 1030.42 201.082C1029.63 199.986 1029.01 198.866 1028.61 197.839C1036.98 200.484 1045.9 199.377 1050.03 198.607Z" fill="white"/>
<path d="M978.08 96.6897C978.08 96.6897 975.575 92.2194 978.727 88.2493C983.162 82.6632 988.628 86.9833 988.628 86.9833C985.466 74.5319 1003.68 74.2432 1006.36 79.1744C1013.11 68.8335 1021.85 76.8524 1022.44 79.5959C1030.42 72.6315 1034.96 82.5509 1034.96 82.5509C1045.4 74.9535 1056.73 86.1388 1053.81 91.4143C1063.76 94.1578 1060.8 102.388 1060.8 102.388C1069.03 102.388 1069.88 113.151 1065.66 114.628C1079.8 121.169 1067.67 130.033 1063.08 127.501C1067.98 137.419 1057.16 141.851 1050.97 139.319C1050.97 139.319 1046.88 146.839 1040.33 140.019C1036.96 148.183 1026.19 143.962 1024.72 139.952C1021.55 145.861 1012.28 146.306 1010.82 140.523C1009.31 146.495 1004.88 143.752 1004.88 143.752C1006.36 151.771 997.562 155.084 997.562 155.084C1000.87 163.167 993.883 163.735 993.883 163.735C994.477 169.06 995.943 181.61 991.165 181.71C986.387 181.81 983.368 172.6 983.368 172.6C977.776 176.086 978.069 168.449 977.337 164.646C973.016 169.074 967.53 166.388 966.686 163.194C962.254 167.808 951.915 158.101 955.501 151.348C945.583 149.237 944.739 137.029 950.436 133.743C940.518 122.437 949.17 118.427 953.601 119.06C946.003 110.409 957.822 107.454 960.142 110.409C959.088 101.545 962.813 98.4822 966.474 100.701C967.318 93.7348 975.548 93.9463 978.08 96.6897Z" fill="#07003D"/>
<path d="M1037.79 270.942C1037.79 270.942 1036.14 274.748 1034.09 279.569C1035.51 284.137 1059.32 432.227 1059.32 432.227L1042.8 458.38L1012.52 422.169L1019.94 281.936L1013.26 274.407L1023.93 265.681C1023.93 265.684 1033.94 264.851 1037.79 270.942Z" fill="#07003D"/>
<path d="M1036.13 269.003L1037.51 271.599C1037.51 271.599 1031.05 267.726 1027.05 267.852C1023.05 267.979 1022.98 271.786 1022.32 275.021C1021.66 278.256 1028.76 279.716 1033.08 279.716C1026.73 281.048 1023.27 282.305 1022.27 284.754C1021.51 286.629 1024.7 430.506 1025.38 437.555L1013.26 432.335L1019.94 281.937L1013.26 274.408L1023.93 265.682C1023.93 265.682 1031.64 265.045 1036.13 269.003Z" fill="#07003D"/>
<path d="M1037.97 229.776C1037.97 229.776 1039.34 234.557 1041.57 240.763C1043.81 246.969 1049.77 261.594 1044.69 280.822C1039.09 270.141 1029.9 265.786 1023.93 265.684C1030.07 258.359 1037.56 233.303 1037.97 229.776Z" fill="#5A90E4"/>
<path d="M988.41 220.648C988.41 220.648 986.693 237.994 994.839 244.538C1005.4 253.027 1018.64 263.121 1023.93 265.684C1020.2 270.363 1008.51 275.463 1009.53 286.043C986.13 271.598 982.727 252.882 980.328 238.84C980.595 224.8 988.41 220.648 988.41 220.648Z" fill="#5A90E4"/>
<path d="M980.327 234.416C980.327 234.416 940.411 252.305 913.82 256.268C920.152 308.98 928.29 382.649 920.693 417.776C913.096 452.902 891.797 557.86 891.797 562.849C953.418 575.436 985.782 563.541 998.444 561.822C1011.11 560.106 1023.37 546.883 1027.36 500.737C1031.36 454.591 1021.23 347.107 1019.97 331.419C1018.7 315.731 994.708 297.866 980.327 234.416Z" fill="white"/>
<path d="M1027.86 449.371C988.94 454.365 950.234 460.466 911.14 463.469C902.263 506.725 891.797 559.35 891.797 562.848C902.044 564.941 911.464 566.345 920.137 567.244C924.637 538.03 941.483 511.311 975.139 506.504C981.471 505.238 985.269 493.842 992.866 491.309C1004.98 487.272 1015.48 496.1 1027.59 497.926C1028.51 484.94 1028.45 467.777 1027.86 449.371Z" fill="#F0F6F7"/>
<path d="M984.346 224.657C984.346 224.657 978.505 225.828 969.436 239.019C960.367 252.212 958.468 295.473 958.468 295.473L983.369 296.739L965.676 318.284C965.676 318.284 1019.08 354.251 1026.86 425.946C1029.58 383.051 1023.25 331.982 1020.51 325.123C1017.77 318.265 1006.79 295.118 994.551 265.646C982.312 236.174 984.346 224.657 984.346 224.657Z" fill="#DFEEEF"/>
<path d="M984.346 224.657C984.346 224.657 978.505 225.828 969.436 239.019C960.367 252.211 956.99 289.986 956.99 289.986L984.346 292.94L966.908 310.667C966.908 310.667 1019.08 354.251 1026.86 425.946C1029.58 383.051 1023.25 331.982 1020.51 325.123C1017.77 318.265 1006.79 295.118 994.551 265.646C982.312 236.174 984.346 224.657 984.346 224.657Z" fill="#F0F6F7"/>
<path d="M894.948 272.498C903.389 257.487 908.875 255.047 915.628 256.267C922.381 257.488 946.016 309.62 943.484 335.926C940.952 362.232 918.16 402.968 897.901 452.69C877.642 502.413 830.582 473.699 841.556 432.337C852.531 390.975 886.507 287.509 894.948 272.498Z" fill="white"/>
<path d="M916.896 262.552C916.896 262.552 934.32 277.536 938.993 304.235C943.667 330.935 934.02 362.014 934.02 362.014C943.484 335.926 957.835 292.94 916.896 262.552Z" fill="#F0F6F7"/>
<path d="M1044.85 484.842L1033.72 379.722L928.343 344.452L927.147 345.489L951.442 458.803L1044.85 484.842Z" fill="#A7DCEA"/>
<path d="M1043.66 485.879L1032.53 380.759L927.147 345.489L950.246 459.84L1043.66 485.879Z" fill="#46AAC1"/>
<path d="M1038.5 437.164L1043.66 485.879L950.247 459.84L947.806 447.753C979.012 450.96 1011.1 451.149 1038.5 437.164Z" fill="#1D96AA"/>
<path d="M964.392 442.546C964.392 442.546 980.512 443.373 985.61 438.413C990.707 433.452 997.871 423.946 1000.49 422.43C1003.11 420.915 1010.55 421.466 1017.71 419.124C1024.88 416.781 1027.91 413.751 1029.15 415.129C1030.39 416.507 1031.49 423.12 1026.67 426.151C1021.84 429.182 1017.7 430.146 1012.75 430.973C1007.79 431.8 1005.45 434.831 1005.86 435.106C1021.02 435.382 1027.63 434.555 1032.04 432.902C1036.45 431.249 1039.48 429.32 1039.48 429.32C1038.1 421.053 1037.98 419.926 1037.98 419.926C1037.98 419.926 1044.44 420.227 1045.68 421.88C1046.92 423.534 1048.44 429.733 1048.57 432.351C1048.71 434.969 1054.77 436.346 1052.29 443.649C1054.09 450.952 1050.92 454.395 1050.92 454.395C1053.26 458.39 1046.78 461.697 1045.13 462.386C1043.48 463.075 1008.9 467.484 992.914 468.587C976.931 469.689 961.777 467.347 961.777 467.347L964.392 442.546Z" fill="#F7A192"/>
<path d="M964.392 442.546C964.392 442.546 980.512 443.373 985.61 438.413C990.707 433.452 997.871 423.946 1000.49 422.43C1003.11 420.915 1010.55 421.466 1017.71 419.124C1024.88 416.781 1027.91 413.751 1029.15 415.129C1030.39 416.507 1031.49 423.12 1026.67 426.151C1021.84 429.182 1017.7 430.146 1012.75 430.973C1007.79 431.8 996.23 436.132 1002.64 437.174C1017.8 437.45 1027.63 434.555 1032.04 432.902C1036.45 431.249 1038.98 429.328 1038.98 429.328C1038.04 421.91 1037.98 419.928 1037.98 419.928C1037.98 419.928 1044.44 420.228 1045.68 421.882C1046.92 423.536 1048.44 429.735 1048.57 432.353C1048.71 434.971 1054.77 436.347 1052.29 443.65C1054.09 450.953 1050.92 454.397 1050.92 454.397C1053.26 458.392 1046.78 461.698 1045.13 462.388C1043.48 463.076 1008.9 467.485 992.914 468.588C976.931 469.691 961.777 467.348 961.777 467.348L964.392 442.546Z" fill="#FFB0A0"/>
<path d="M1020.21 418.223C1020.21 418.223 1021.1 419.4 1021.26 420.93C1021.42 422.46 1023 421.827 1026.01 420.138C1029.02 418.449 1029.6 418.593 1029.76 417.711C1029.91 416.828 1029.65 415.273 1028.07 414.646C1026.48 414.019 1020.21 418.223 1020.21 418.223Z" fill="#FFC6BD"/>
<path d="M964.391 442.546C964.391 442.546 975.537 443.115 982.223 440.453C976.207 456.443 989.876 465.012 1004.16 467.598C999.953 468.019 996.066 468.366 992.91 468.585C976.927 469.688 961.773 467.345 961.773 467.345L964.391 442.546Z" fill="#F7A192"/>
<path d="M1048.16 434.969C1048.16 434.969 1040.17 441.996 1034.66 443.787C1029.15 445.578 1032.59 446.506 1036.31 444.991C1040.03 443.474 1048.16 434.969 1048.16 434.969Z" fill="#F9998A"/>
<path d="M1052.12 443.631C1052.12 443.631 1043.33 449.623 1037.64 450.724C1031.95 451.825 1035.01 453.212 1038.88 452.165C1042.76 451.118 1052.12 443.631 1052.12 443.631Z" fill="#F9998A"/>
<path d="M1050.66 454.602C1050.66 454.602 1041.87 458.206 1036.65 458.144C1031.43 458.081 1033.96 459.795 1037.57 459.582C1041.18 459.369 1050.66 454.602 1050.66 454.602Z" fill="#F9998A"/>
<path d="M980.154 469.27C980.154 469.27 982.829 477.472 980.154 483.185C978.48 486.761 975.447 488.68 972.259 486.761C969.072 484.842 961.066 474.313 961.12 471.253C961.176 468.194 980.154 469.27 980.154 469.27Z" fill="#DFEEEF"/>
<path d="M968.671 440.583L968.91 440.204H974.725L981.329 440.784C981.329 440.784 977.123 443.873 976.405 452.086C975.688 460.299 977.404 468.929 987.589 468.88C985.575 472.5 970.902 475.529 962.45 474.253C956.231 463.728 963.726 442.317 968.671 440.583Z" fill="#2866BF"/>
<path d="M968.671 440.583L968.91 440.204H972.902C971.162 441.362 970.214 443.471 969.627 445.228C965.218 455.305 967.03 466.209 973.147 474.125C969.363 474.612 965.501 474.714 962.45 474.253C956.231 463.728 963.726 442.317 968.671 440.583Z" fill="#2866BF"/>
<path d="M855.136 431.639C870.752 425.308 895.303 429.069 895.865 429.107C924.081 431.006 950.616 435.106 974.725 440.204C974.725 440.204 961.912 445.577 963.566 462.936C965.219 480.295 972.259 486.761 972.259 486.761C972.259 486.761 883.889 491.115 860.744 478.303C840.375 467.027 839.677 454.666 845.178 438.659C845.178 438.659 849.733 433.83 855.136 431.639Z" fill="white"/>
</g>
<mask id="mask3_2402_8667" style="mask-type:luminance" maskUnits="userSpaceOnUse" x="840" y="72" width="488" height="494">
<path d="M1328 72H840V566H1328V72Z" fill="white"/>
</mask>
<g mask="url(#mask3_2402_8667)">
<path d="M1158.13 159.28C1158.13 159.28 1144.36 211.449 1166.2 238.039C1188.05 264.629 1241.86 250.7 1256.42 248.801C1270.98 246.902 1270.61 191.96 1262.29 155.558C1256.07 128.398 1158.13 159.28 1158.13 159.28Z" fill="#0A0751"/>
<path d="M1261.36 181.094C1261.36 181.094 1267.37 236.341 1249.26 249.974C1231.15 263.185 1188.52 251.492 1188.52 251.492C1188.52 251.492 1173.51 247.863 1166.67 215.28C1163.83 201.774 1167.95 171.269 1172.17 161.946C1176.39 152.622 1191.27 151.972 1191.27 151.972L1261.36 181.094Z" fill="#07072B"/>
<path d="M1191.55 249.141V243.097C1194 241.758 1196.25 239.661 1197.69 236.388C1202.46 225.503 1198.47 209.531 1198.47 209.531L1239.35 193.599C1239.35 193.599 1235.83 218.309 1238.85 229.569C1241.87 240.829 1249.32 244.895 1249.32 244.895C1249.32 244.895 1268.48 304.719 1224.99 306.31C1187.37 307.687 1189.03 270.971 1186.22 261.547L1191.55 249.141Z" fill="#FFB0A0"/>
<path d="M1247.15 285.016C1236.39 295.065 1219.16 294.348 1210.55 284.298C1197.62 269.225 1198.34 239.795 1214.13 226.158C1221.95 220.294 1230.95 215.604 1237.91 208.349C1238.4 200.321 1239.35 193.601 1239.35 193.601L1194.85 209.514C1194.85 209.514 1199.89 225.288 1195.12 236.173C1193.69 239.446 1191.31 242.114 1188.86 243.454L1180.37 258.015V266.35C1183.18 275.773 1187.37 307.686 1224.99 306.31C1245.48 305.561 1252.06 291.886 1253.29 277.63C1251.39 280.197 1249.35 282.669 1247.15 285.016Z" fill="#F7A192"/>
<path d="M1177.33 169.625C1177.33 169.625 1172.78 163.275 1168.22 169.625C1163.66 175.976 1170.08 186.271 1175.76 187.209C1181.44 188.147 1181.2 185.866 1180.84 183.668C1180.47 181.47 1177.33 169.625 1177.33 169.625Z" fill="#EA8A7D"/>
<path d="M1173.17 184.997C1173.17 184.997 1172.76 184.087 1171.12 182.748C1169.49 181.409 1168.96 177.176 1168.9 174.767C1168.84 172.356 1170.42 169.946 1171.36 169.303C1172.3 168.66 1176.15 172.678 1176.45 173.911C1176.74 175.143 1177.85 177.178 1176.45 179.053C1175.04 180.929 1175.63 181.571 1176.74 182.268C1177.85 182.965 1177.03 184.144 1176.45 184.731C1175.86 185.321 1175.03 184.249 1174.04 183.018C1173.05 181.785 1174.84 178.775 1175.26 178.298C1175.69 177.821 1172.35 176.696 1171.18 180.661C1171.07 178.572 1173.23 174.989 1175.98 177.182C1175.1 173.375 1173.56 171.679 1172.43 170.894C1171.3 170.108 1170.52 172.645 1170.09 175.145C1169.66 177.644 1169.94 180.859 1171.03 181.68C1172.12 182.497 1172.86 183.996 1173.17 184.997Z" fill="#CE5D57"/>
<path d="M1252.66 171.002C1252.66 171.002 1257.76 164.653 1262.87 171.002C1267.98 177.353 1260.81 190.969 1254.44 191.907C1248.08 192.845 1248.33 187.243 1248.74 185.045C1249.15 182.847 1252.66 171.002 1252.66 171.002Z" fill="#FFB0A0"/>
<path d="M1257.09 184.997C1257.09 184.997 1257.5 184.087 1259.13 182.748C1260.77 181.409 1261.3 177.176 1261.36 174.767C1261.41 172.356 1259.83 169.946 1258.9 169.303C1257.96 168.66 1254.1 172.678 1253.81 173.911C1253.52 175.143 1252.41 177.178 1253.81 179.053C1255.22 180.929 1254.63 181.571 1253.52 182.268C1252.41 182.965 1253.23 184.144 1253.81 184.731C1254.4 185.321 1255.23 184.249 1256.22 183.018C1257.2 181.785 1255.42 178.775 1255 178.298C1254.57 177.821 1257.91 176.696 1259.08 180.661C1259.19 178.572 1257.03 174.988 1254.28 177.182C1255.16 173.375 1256.7 171.679 1257.83 170.894C1258.96 170.108 1259.74 172.645 1260.17 175.144C1260.6 177.644 1260.32 180.859 1259.23 181.68C1258.14 182.497 1257.4 183.996 1257.09 184.997Z" fill="#E8867C"/>
<path d="M1189.9 128.663C1189.9 128.663 1176.55 140.06 1175.09 162.283C1173.62 184.507 1176.88 203.8 1189.9 213.813C1202.93 223.825 1215.47 222.89 1231.5 214.056C1243.47 207.462 1252.02 188.589 1252.5 174.825C1252.99 161.061 1253.48 141.197 1241.03 128.661C1228.57 116.127 1200.32 120.93 1189.9 128.663Z" fill="#FFB0A0"/>
<path d="M1195.13 214.265C1182.11 204.252 1182.8 190.574 1184.26 168.351C1185.73 146.127 1195.13 129.114 1195.13 129.114C1201.23 124.589 1213.42 121.076 1224.99 121.442C1212.06 119.575 1196.93 123.447 1189.9 128.662C1189.9 128.662 1176.55 140.058 1175.09 162.282C1173.62 184.505 1176.88 203.798 1189.9 213.811C1196.37 218.78 1202.71 221.05 1209.42 220.999C1204.59 220.119 1199.89 217.927 1195.13 214.265Z" fill="#F7A192"/>
<path d="M1176.07 162.966C1176.07 162.966 1174.6 177.822 1176.39 189.218C1173.44 181.409 1172.59 165.855 1172.7 163.714C1172.8 161.574 1176.07 162.966 1176.07 162.966Z" fill="#0A0751"/>
<path opacity="0.56" d="M1242.17 184.997C1242.17 188.843 1239.05 191.96 1235.21 191.96C1231.36 191.96 1228.25 188.841 1228.25 184.997C1228.25 181.151 1231.36 178.034 1235.21 178.034C1239.05 178.032 1242.17 181.151 1242.17 184.997Z" fill="#FF9797"/>
<path d="M1217.46 170.539C1217.46 170.539 1212.09 163.067 1218.92 154.641C1226.25 153.542 1231.18 152.405 1234.19 154.641C1237.19 156.877 1237.62 163.443 1235.9 167.182C1232.79 164.238 1230.77 162.13 1223.77 164.085C1221.41 165.06 1217.91 167.55 1217.46 170.539Z" fill="#F7A192"/>
<path d="M1197.3 170.724C1197.3 170.724 1199.51 163.393 1194.95 155.556C1191.29 153.744 1185.75 153.625 1185.75 153.625L1179.27 169.051C1179.27 169.051 1188.17 167.688 1191.25 168.071C1195.41 168.587 1197.3 170.724 1197.3 170.724Z" fill="#F7A192"/>
<path d="M1217.27 167.615C1217.27 167.615 1219.87 163.219 1226.09 163.537C1232.3 163.855 1235.26 169.148 1235.26 169.148C1233.17 168.875 1231.5 171.19 1225.31 171.302C1219.11 171.415 1217.27 167.615 1217.27 167.615Z" fill="white"/>
<mask id="mask4_2402_8667" style="mask-type:luminance" maskUnits="userSpaceOnUse" x="1217" y="163" width="19" height="9">
<path d="M1217.27 167.615C1217.27 167.615 1219.87 163.219 1226.09 163.537C1232.3 163.855 1235.26 169.148 1235.26 169.148C1233.17 168.875 1231.5 171.19 1225.31 171.302C1219.11 171.415 1217.27 167.615 1217.27 167.615Z" fill="white"/>
</mask>
<g mask="url(#mask4_2402_8667)">
<path d="M1230.72 166.603C1231.16 168.627 1229.87 170.624 1227.85 171.063C1225.82 171.502 1223.82 170.216 1223.39 168.191C1222.95 166.167 1224.23 164.17 1226.26 163.731C1228.28 163.292 1230.28 164.577 1230.72 166.603Z" fill="#0E004D"/>
<path d="M1228.81 167.014C1229.02 167.987 1228.41 168.947 1227.43 169.157C1226.46 169.367 1225.5 168.75 1225.29 167.777C1225.08 166.804 1225.7 165.844 1226.67 165.634C1227.64 165.424 1228.6 166.043 1228.81 167.014Z" fill="#05002D"/>
<path d="M1229.21 166.12C1229.31 166.546 1229.04 166.966 1228.61 167.059C1228.18 167.151 1227.76 166.881 1227.67 166.454C1227.58 166.028 1227.85 165.608 1228.28 165.515C1228.7 165.423 1229.12 165.694 1229.21 166.12Z" fill="white"/>
</g>
<path d="M1217.27 167.615C1218.25 165.986 1219.77 164.646 1221.57 163.864C1223.37 163.033 1225.42 162.855 1227.36 163.114C1229.3 163.387 1231.2 164.159 1232.73 165.394C1234.25 166.631 1235.4 168.327 1235.84 170.178C1234.98 168.492 1233.68 167.125 1232.21 166.103C1230.7 165.115 1228.99 164.468 1227.2 164.234C1225.43 163.981 1223.6 164.084 1221.9 164.682C1220.2 165.267 1218.59 166.26 1217.27 167.615Z" fill="#0A0751"/>
<path d="M1235.07 169.447C1235.07 169.447 1234.08 172.379 1230.03 174.817C1225.97 177.256 1217.73 175.363 1216.95 168.339C1219.05 172.37 1221.75 174.373 1227.11 174.075C1232.47 173.778 1235.07 169.447 1235.07 169.447Z" fill="#F7A192"/>
<path d="M1217.55 165.651C1218.35 163.925 1219.86 162.55 1221.6 161.73C1223.37 160.909 1225.38 160.741 1227.29 160.963C1229.2 161.195 1231.08 161.876 1232.63 163.028C1234.15 164.202 1235.45 165.75 1235.96 167.596C1235.62 166.713 1235.07 165.932 1234.46 165.234C1233.85 164.526 1233.15 163.905 1232.38 163.383C1231.6 162.881 1230.78 162.454 1229.92 162.128C1229.04 161.845 1228.14 161.602 1227.22 161.523C1226.3 161.382 1225.37 161.39 1224.45 161.462C1223.54 161.579 1222.63 161.777 1221.78 162.127C1220.08 162.831 1218.56 164.048 1217.55 165.651Z" fill="#AD625A"/>
<path d="M1198.9 167.72C1198.9 167.72 1196.66 163.136 1190.44 162.97C1184.21 162.804 1180.86 167.852 1180.86 167.852C1182.95 167.742 1184.44 170.18 1190.61 170.772C1196.78 171.365 1198.9 167.72 1198.9 167.72Z" fill="white"/>
<mask id="mask5_2402_8667" style="mask-type:luminance" maskUnits="userSpaceOnUse" x="1180" y="162" width="19" height="9">
<path d="M1198.9 167.72C1198.9 167.72 1196.66 163.136 1190.44 162.97C1184.21 162.804 1180.86 167.852 1180.86 167.852C1182.95 167.742 1184.44 170.18 1190.61 170.772C1196.78 171.365 1198.9 167.72 1198.9 167.72Z" fill="white"/>
</mask>
<g mask="url(#mask5_2402_8667)">
<path d="M1187.46 165.523C1186.86 167.508 1187.99 169.598 1189.98 170.193C1191.96 170.786 1194.05 169.659 1194.65 167.675C1195.24 165.69 1194.11 163.6 1192.13 163.007C1190.14 162.412 1188.05 163.539 1187.46 165.523Z" fill="#0E004D"/>
<path d="M1189.33 166.083C1189.04 167.037 1189.58 168.04 1190.54 168.326C1191.49 168.612 1192.49 168.069 1192.78 167.117C1193.07 166.163 1192.52 165.16 1191.57 164.874C1190.62 164.588 1189.61 165.129 1189.33 166.083Z" fill="#05002D"/>
<path d="M1189 165.16C1188.87 165.577 1189.11 166.017 1189.52 166.143C1189.94 166.268 1190.38 166.03 1190.51 165.613C1190.63 165.196 1190.4 164.756 1189.98 164.63C1189.56 164.503 1189.12 164.741 1189 165.16Z" fill="white"/>
</g>
<path d="M1198.9 167.721C1198.06 166.021 1196.64 164.564 1194.91 163.647C1193.19 162.68 1191.15 162.342 1189.19 162.451C1187.24 162.572 1185.29 163.195 1183.66 164.308C1182.05 165.422 1180.78 167.025 1180.19 168.835C1181.18 167.22 1182.59 165.959 1184.14 165.054C1185.71 164.187 1187.47 163.675 1189.27 163.58C1191.06 163.465 1192.87 163.71 1194.52 164.439C1196.17 165.152 1197.7 166.268 1198.9 167.721Z" fill="#0A0751"/>
<path d="M1181.02 168.167C1181.02 168.167 1181.78 171.167 1185.63 173.912C1189.49 176.658 1197.85 175.411 1199.17 168.467C1196.76 172.324 1193.92 174.11 1188.6 173.397C1183.28 172.685 1181.02 168.167 1181.02 168.167Z" fill="#F7A192"/>
<path d="M1198.78 165.741C1198.11 163.959 1196.72 162.471 1195.04 161.517C1193.34 160.561 1191.36 160.238 1189.44 160.311C1187.51 160.394 1185.59 160.927 1183.94 161.957C1182.35 163.01 1180.92 164.451 1180.28 166.252C1180.68 165.397 1181.29 164.662 1181.96 164.013C1182.62 163.355 1183.37 162.789 1184.17 162.328C1184.98 161.888 1185.84 161.526 1186.72 161.27C1187.62 161.057 1188.54 160.883 1189.46 160.876C1190.39 160.806 1191.31 160.887 1192.22 161.029C1193.13 161.217 1194.01 161.484 1194.84 161.9C1196.48 162.732 1197.9 164.066 1198.78 165.741Z" fill="#AD625A"/>
<path d="M1219.81 155.021C1219.81 155.021 1224.57 153.312 1230.43 153.312C1236.29 153.312 1241.09 157.708 1241.09 157.708C1235.72 151.195 1232.06 150.544 1227.58 150.3C1223.1 150.056 1219.36 151.032 1218.22 151.847C1217.08 152.66 1217.08 154.858 1219.81 155.021Z" fill="#0A0751"/>
<path d="M1196.63 156.594C1196.63 156.594 1191.87 154.884 1186.01 154.884C1180.15 154.884 1175.34 159.28 1175.34 159.28C1180.72 152.768 1184.38 152.116 1188.86 151.872C1193.33 151.629 1197.08 152.605 1198.22 153.42C1199.36 154.234 1199.36 156.432 1196.63 156.594Z" fill="#0A0751"/>
<path d="M1205.23 170.982C1205.23 170.982 1205.77 174.958 1203.03 178.228C1203.03 178.228 1201.36 180.243 1200.49 181.337C1199.32 182.793 1200.22 184.555 1201.85 183.812C1202.36 183.579 1203.62 182.304 1204.38 180.563C1205.15 178.821 1206.55 174.099 1205.23 170.982Z" fill="#FFC6BD"/>
<path d="M1198.83 185.828C1198.83 185.828 1198.27 188.303 1203.31 190.291C1208.35 192.279 1214.73 189.209 1214.07 185.497C1212.15 187.485 1204.19 189.606 1198.83 185.828Z" fill="#F7A192"/>
<path d="M1202.23 160.257C1202.57 161.987 1202.89 163.718 1203.1 165.463C1203.33 167.201 1203.48 168.949 1203.47 170.686C1203.45 172.412 1203.33 174.17 1202.64 175.68C1201.98 177.211 1200.77 178.427 1199.39 179.466C1198.71 180.003 1197.99 180.494 1197.29 181.105C1196.94 181.419 1196.59 181.747 1196.32 182.206C1196.18 182.431 1196.09 182.678 1196.02 182.975C1195.95 183.305 1196.03 183.607 1196.13 183.868C1196.59 184.867 1197.36 185.427 1198.12 185.945C1198.88 186.454 1199.71 186.842 1200.56 187.154C1202.25 187.779 1204.04 188.129 1205.83 188.162C1207.61 188.162 1209.42 187.865 1211.02 187.122C1209.34 187.655 1207.58 187.841 1205.85 187.683C1204.12 187.558 1202.41 187.135 1200.84 186.457C1200.05 186.115 1199.29 185.713 1198.6 185.236C1197.92 184.768 1197.25 184.168 1196.99 183.535C1196.74 183.039 1197.31 182.346 1197.92 181.824C1198.55 181.282 1199.29 180.787 1200 180.239C1201.41 179.152 1202.78 177.792 1203.49 176.049C1204.21 174.301 1204.31 172.449 1204.22 170.674C1204.05 167.101 1203.3 163.619 1202.23 160.257Z" fill="#ED857A"/>
<path d="M1210.91 209.53C1211.11 209.28 1204.8 211.972 1200.4 209.53C1202.03 212.135 1206.92 214.333 1210.91 209.53Z" fill="#F7A192"/>
<path d="M1194.85 193.017C1194.85 193.017 1212.28 195.263 1221.8 193.017C1217.33 202.725 1202.02 211.147 1194.85 193.017Z" fill="#752727"/>
<path d="M1221.53 193.076C1212.99 194.989 1198.47 193.443 1195.43 193.087C1195.85 193.614 1196.85 194.66 1198.56 195.18C1200.89 195.892 1211.81 196.486 1216.05 195.695C1219.3 195.087 1220.94 193.693 1221.53 193.076Z" fill="white"/>
<path d="M1207.62 197.712C1203.6 196.922 1200.56 199.215 1199.37 200.317C1205.02 205.967 1212.37 203.758 1217.37 199.058C1213.54 196.697 1212.32 198.638 1207.62 197.712Z" fill="#B23030"/>
<path d="M1226.27 121.643C1226.27 121.643 1225 147.558 1194.84 161.9C1203.72 159.991 1226.81 145.039 1228.24 120.967C1229.04 113.353 1226.27 121.643 1226.27 121.643Z" fill="#0A0751"/>
<path d="M1226.56 126.649C1226.56 126.649 1191.95 184.692 1152.7 161.9C1155.81 131.474 1170.87 91.4855 1218.35 101.615C1234.18 96.1279 1263.43 119.988 1263.22 171.479C1260.85 168.182 1253.05 166.191 1251.99 174.21C1246.29 152.685 1235.63 129.814 1226.56 126.649Z" fill="#0A0751"/>
<path d="M1251.99 174.21C1252.75 168.413 1257.04 167.858 1260.25 169.235C1247.36 128.672 1226.56 126.649 1226.56 126.649C1235.63 129.814 1246.29 152.683 1251.99 174.21Z" fill="#07072B"/>
<path d="M1226.75 184.03C1219.31 184.03 1213.26 177.978 1213.26 170.539C1213.26 163.1 1219.31 157.049 1226.75 157.049C1234.19 157.049 1240.24 163.1 1240.24 170.539C1240.24 177.977 1234.19 184.03 1226.75 184.03ZM1226.75 158.313C1220.01 158.313 1214.53 163.797 1214.53 170.537C1214.53 177.278 1220.01 182.762 1226.75 182.762C1233.49 182.762 1238.98 177.278 1238.98 170.537C1238.98 163.797 1233.49 158.313 1226.75 158.313Z" fill="#55556D"/>
<path d="M1188.55 184.03C1181.11 184.03 1175.06 177.978 1175.06 170.539C1175.06 163.1 1181.11 157.049 1188.55 157.049C1195.99 157.049 1202.05 163.1 1202.05 170.539C1202.05 177.977 1195.99 184.03 1188.55 184.03ZM1188.55 158.313C1181.81 158.313 1176.33 163.797 1176.33 170.537C1176.33 177.278 1181.81 182.762 1188.55 182.762C1195.3 182.762 1200.78 177.278 1200.78 170.537C1200.78 163.797 1195.3 158.313 1188.55 158.313Z" fill="#55556D"/>
<path d="M1215.22 164.814C1206.43 160.896 1200.16 164.732 1200.1 164.77L1199.42 163.701C1199.7 163.524 1206.29 159.449 1215.73 163.657L1215.22 164.814Z" fill="#55556D"/>
<path d="M1253.68 170.118L1239.59 169.468L1239.63 168.202L1255.82 168.81L1253.68 170.118Z" fill="#55556D"/>
<path d="M1188.73 262.552C1188.73 262.552 1190.96 282.175 1210.55 284.298C1230.13 286.422 1241.91 269.516 1241.91 269.516C1241.91 269.516 1227.06 311.933 1210.96 317.21C1194.85 322.484 1188.73 262.552 1188.73 262.552Z" fill="#EF4D8F"/>
<path d="M1137.04 549.13V648.737L1333.59 642.828L1308.64 526.424L1137.04 549.13Z" fill="#07003D"/>
<path d="M1194.38 237.651C1194.38 237.651 1170.94 258.957 1158 259.717C1145.06 260.478 1128.71 269.989 1124.52 274.173C1134.03 294.718 1144.68 320.968 1139.74 342.275C1134.79 363.579 1131.75 386.406 1137.46 399.723C1143.16 413.039 1136.31 448.046 1130.99 497.691C1125.66 547.336 1124.52 568.33 1124.52 568.33C1124.52 568.33 1194.14 585.762 1210.88 548.859C1227.62 511.955 1215.45 310.62 1215.45 310.62C1215.45 310.62 1181.35 282.599 1194.38 237.651Z" fill="white"/>
<path d="M1184.96 449.735C1196.36 447.075 1207.86 446.983 1219.8 446.57C1219.78 433.769 1219.5 417.329 1219.22 404.787H1138.87C1141.34 418.736 1128.8 495.53 1124.52 568.33C1136.82 491.73 1164.75 455.311 1184.96 449.735Z" fill="#F0F6F7"/>
<path d="M1242.33 237.651C1242.33 237.651 1247.4 281.123 1207.84 310.62C1204.99 354.449 1206.7 537.636 1207.84 539.918C1208.98 542.201 1203.84 567.877 1260.91 572.445C1317.98 577.013 1327.68 550.762 1327.68 550.762C1327.68 550.762 1291.73 429.208 1289.45 386.978C1287.16 344.748 1290.02 280.722 1300.29 263.942C1276.89 255.722 1255.63 252.634 1242.33 237.651Z" fill="white"/>
<path d="M1291.53 404.787H1206.28C1206.27 417.746 1205.49 434.263 1205.55 447.104C1241.33 447.104 1269.4 445.392 1296.53 431.06C1294.51 421.608 1292.78 412.682 1291.53 404.787Z" fill="#F0F6F7"/>
<path d="M1205.55 445.304C1205.55 445.304 1204.33 533.391 1210.88 548.859C1217.43 564.327 1236.26 568.33 1236.26 568.33C1236.26 568.33 1215.75 563.904 1212.79 544.066C1209.84 524.229 1209.84 445.304 1209.84 445.304H1205.55Z" fill="#F0F6F7"/>
<path d="M1179.31 378.797C1179.31 378.797 1175.12 400.863 1179.31 423.31C1202.51 432.059 1245.88 433.201 1264.53 429.777C1283.17 426.352 1292.68 425.592 1307.9 422.548C1323.12 419.504 1325.4 387.547 1326.16 370.427C1326.92 353.307 1324.26 328.578 1321.6 319.447C1318.93 310.317 1311.13 266.264 1300.29 263.942C1289.45 261.62 1281.65 306.703 1282.98 322.872C1284.31 339.041 1283.17 366.053 1280.51 369.858C1273.85 374.614 1253.78 380.13 1241.23 380.416C1228.67 380.699 1199.09 384.504 1179.31 378.797Z" fill="white"/>
<path d="M1286.36 347.201C1286.36 347.201 1290.08 344.464 1291.82 345.714C1293.56 346.964 1289.76 351.475 1290.56 351.158C1291.35 350.842 1295.38 347.28 1297.96 349.814C1300.53 352.346 1289.92 364.216 1289.92 364.216C1289.92 364.216 1295.37 359.848 1297.51 360.331C1299.66 360.814 1297.76 364.295 1296.41 366.037C1295.07 367.778 1292.73 369.241 1292.73 369.241L1278.89 373.914L1286.36 347.201Z" fill="#F0F6F7"/>
<path d="M1295.93 272.498C1295.93 272.498 1280.93 291.048 1283.59 314.894C1286.25 338.739 1287.39 354.398 1289.6 363.184C1291.82 371.97 1281.37 393.813 1280.74 394.762C1280.11 395.712 1274.41 388.747 1274.41 388.747C1274.41 388.747 1288.97 382.311 1283.59 353.716C1278.21 325.122 1271.56 295.528 1295.93 272.498Z" fill="#F0F6F7"/>
<path d="M1282.49 335.317C1282.49 335.317 1280.76 309.823 1296.47 308.347C1312.19 306.869 1309.65 315.113 1304.38 314.895C1299.1 314.678 1289.38 324.185 1289.17 333.675C1295.3 325.65 1310.58 330.726 1308.43 333.675C1306.28 336.624 1294.88 338.945 1294.04 342.744C1293.19 346.542 1295.45 347.12 1292.11 355.906C1288.76 364.692 1282.88 359.651 1282.88 359.651L1282.49 335.317Z" fill="#F0F6F7"/>
<path d="M1124.52 274.173C1124.52 274.173 1116.53 284.065 1110.06 304.99C1103.6 325.914 1093.12 355.925 1090.76 369.378C1086.02 396.444 1091.68 407.13 1095.63 415.499C1099.58 423.87 1146.68 437.387 1172.12 440.81C1197.57 444.235 1230.67 440.81 1230.67 440.81V405.046C1230.67 405.046 1176.2 396.297 1163.11 391.351C1150.01 386.405 1143.55 378.207 1142.31 374.231C1141.06 370.255 1141.06 346.073 1140.97 329.335C1140.88 312.598 1135.17 274.935 1124.52 274.173Z" fill="#F0F6F7"/>
<path d="M1124.52 274.173C1124.52 274.173 1118.78 284.253 1112.32 305.179C1105.85 326.102 1100.17 356.351 1097.13 369.667C1094.09 382.983 1098.31 401.452 1102.26 409.821C1106.2 418.192 1149.13 433.741 1174.58 437.164C1200.02 440.589 1228.71 438.761 1228.71 438.761L1230.67 405.046C1230.67 405.046 1176.2 396.297 1163.11 391.351C1150.01 386.405 1143.55 378.207 1142.3 374.231C1141.06 370.255 1141.06 346.073 1140.97 329.335C1140.88 312.598 1135.17 274.935 1124.52 274.173Z" fill="white"/>
<path d="M1106.64 376.245L1103.26 378.688C1103.26 378.688 1102.61 380.914 1106.64 380.755C1110.68 380.597 1120.57 380.692 1120.81 380.763C1121.05 380.835 1104.9 392.293 1103.56 393.291C1102.21 394.288 1099.65 396.155 1099.65 396.155C1099.65 396.155 1098.41 401.41 1108.62 399.036C1106.01 403.071 1102.41 404.787 1102.41 404.787C1102.41 404.787 1103.79 408.532 1108.62 407.425C1113.45 406.317 1122.47 400.777 1129.51 403.863C1124.13 408.216 1117.48 419.149 1117.48 419.149C1117.48 419.149 1123.18 419.532 1125.79 416.684C1128.4 413.835 1137.19 406.792 1149.22 413.438C1161.24 420.086 1181.69 420.676 1181.69 420.676L1185.63 398.459L1165.83 382.258C1165.83 382.258 1139.24 372.445 1136.4 371.971C1133.55 371.496 1106.64 376.245 1106.64 376.245Z" fill="#F0F6F7"/>
<path d="M1131.33 272.498C1131.33 272.498 1146.34 291.048 1143.68 314.894C1141.02 338.739 1139.88 354.398 1137.66 363.184C1135.45 371.97 1145.89 393.813 1146.53 394.762C1147.16 395.712 1152.86 388.747 1152.86 388.747C1152.86 388.747 1138.3 382.311 1143.68 353.716C1149.06 325.122 1155.71 295.528 1131.33 272.498Z" fill="#F0F6F7"/>
<path d="M1281.06 328.92C1281.06 328.92 1281.06 353.162 1265.55 365.574C1250.04 377.985 1230.09 373.323 1211.1 373.913C1192.11 374.503 1186.73 379.156 1167.1 374.298C1147.48 369.439 1141.56 355.576 1142.31 348.737C1137.6 369.206 1148.74 394.851 1148.74 394.851C1148.74 394.851 1169.64 420.401 1213.32 417.553C1257 414.705 1284.43 396.345 1288.43 386.848C1292.42 377.352 1281.06 328.92 1281.06 328.92Z" fill="#F0F6F7"/>
<path d="M1258.06 380.51C1258.06 380.51 1269.85 369.856 1273.47 362.247C1277.08 354.638 1283.36 347.22 1287.73 345.889C1292.11 344.557 1287.02 351.167 1284.45 355.162C1281.88 359.157 1274.61 372.852 1272.33 377.276C1270.04 381.698 1258.06 380.51 1258.06 380.51Z" fill="#FFB0A0"/>
<path d="M1269.04 382.411C1269.04 382.411 1276.18 368.573 1280.03 361.153C1283.88 353.734 1291.3 348.884 1294.3 348.742C1297.29 348.599 1295.63 352.07 1293.63 354.163C1291.63 356.254 1283.55 366.242 1280.6 373.757C1277.65 381.269 1269.04 382.411 1269.04 382.411Z" fill="#FFB0A0"/>
<path d="M1278.89 372.428C1278.89 372.428 1287.92 359.838 1296.89 360.154C1299.31 360.471 1297.2 362.872 1294.59 364.533C1291.98 366.194 1287.47 371.814 1285.41 373.396C1283.35 374.979 1278.89 372.428 1278.89 372.428Z" fill="#FFB0A0"/>
<path d="M1288.52 345.387C1288.52 345.387 1288.89 346.093 1288.95 346.542C1289 346.99 1285.75 349.602 1285.17 349.892C1284.59 350.183 1284.37 349.138 1283.04 348.895C1284.84 346.777 1287.18 345.314 1288.52 345.387Z" fill="#FFC6BD"/>
<path d="M1288.42 351.713C1288.42 351.713 1289.96 352.465 1290.63 353.454C1291.86 353.613 1295.19 350.364 1295.53 349.943C1295.87 349.523 1294.29 348.31 1293.31 348.231C1292.32 348.151 1288.87 350.881 1288.42 351.713Z" fill="#FFC6BD"/>
<path d="M1291.88 361.177C1291.88 361.177 1295.01 359.86 1296.23 359.65C1297.44 359.441 1298.05 360.776 1297.6 361.177C1297.15 361.578 1294.38 362.971 1293.64 363.184C1292.9 363.398 1293.07 361.884 1291.88 361.177Z" fill="#FFC6BD"/>
<path d="M1270.61 373.348C1270.61 373.348 1280.36 358.089 1285.17 354.275C1281.38 356.618 1273.7 367.024 1271.44 370.23C1269.19 373.434 1268.28 374.305 1268.44 375.058C1268.59 375.81 1269.89 374.465 1270.61 373.348Z" fill="#F7A192"/>
<path d="M1286.35 364.596C1286.35 364.596 1278.16 372.498 1276.15 376.983C1274.15 381.468 1274.09 377.88 1274.89 376.561C1275.68 375.241 1282.63 366.401 1286.35 364.596Z" fill="#F7A192"/>
<path d="M1182.73 383.743C1182.73 383.743 1172.46 381.08 1158.57 376.324C1144.68 371.569 1135.22 367.574 1127.52 367.431C1119.81 367.288 1105.78 373.851 1103.59 376.704C1101.41 379.557 1105.31 379.557 1109.49 378.417C1113.68 377.274 1124.8 373.851 1132.13 377.941C1118.91 378.797 1114.29 380.937 1110.58 383.743C1106.87 386.549 1099.65 394.348 1099.65 396.155C1099.65 397.962 1103.17 398.391 1106.35 396.536C1109.54 394.68 1115.62 389.926 1118.05 388.594C1120.48 387.262 1128.65 386.739 1132.17 388.262C1123.8 388.737 1120.33 388.975 1116.67 391.543C1113.01 394.112 1103.19 401.744 1102.4 403.812C1101.62 405.88 1105.47 406.951 1110.32 404.454C1115.17 401.957 1121.02 397.177 1124.52 396.679C1128.01 396.18 1135.89 397.261 1136.66 397.647C1128.01 401.387 1125.37 403.741 1122.45 407.094C1119.52 410.447 1116.17 415.725 1115.89 417.794C1115.6 419.862 1119.45 419.792 1122.73 416.01C1126.02 412.229 1131.86 408.805 1134.79 408.091C1137.71 407.378 1142.64 405.952 1150.48 408.377C1158.33 410.803 1174.74 410.09 1181.58 406.238C1188.44 402.384 1182.73 383.743 1182.73 383.743Z" fill="#FFB0A0"/>
<path d="M1102.84 376.857C1102.84 376.857 1103.08 378.104 1103.58 378.38C1104.07 378.657 1107.12 376.659 1107.3 376.521C1107.3 376.125 1106.88 376.006 1106.66 375.373C1106.45 374.74 1106.61 374.363 1106.61 374.363C1106.61 374.363 1103.7 375.968 1102.84 376.857Z" fill="#FFC6BD"/>
<path d="M1115.71 417.982C1115.71 417.982 1116.61 418.883 1117.17 418.835C1117.74 418.788 1119.15 415.428 1119.22 415.213C1119 414.885 1118.59 415.02 1118.05 414.616C1117.52 414.212 1117.55 413.978 1117.55 413.978C1117.55 413.978 1115.92 416.767 1115.71 417.982Z" fill="#FFC6BD"/>
<path d="M1099.6 395.672C1099.6 395.672 1100.11 396.86 1101.36 397.354C1102.77 396.642 1104.78 393.734 1104.9 393.436C1105.02 393.14 1103.17 392.48 1102.76 391.425C1100.91 393.199 1099.6 395.672 1099.6 395.672Z" fill="#FFC6BD"/>
<path d="M1102.41 403.545C1102.41 403.545 1102.75 404.794 1103.91 405.463C1105.4 404.962 1107.82 402.376 1107.98 402.099C1108.14 401.821 1106.41 400.902 1106.15 399.798C1104.06 401.286 1102.41 403.545 1102.41 403.545Z" fill="#FFC6BD"/>
<path d="M1183.56 381.309H1174.14C1174.14 381.309 1168.91 399.826 1172.12 412.33C1184.04 412.173 1186.89 408.849 1186.89 408.849L1183.56 381.309Z" fill="#EF4D8F"/>
<path d="M1289.45 369.362C1281.6 373.857 1252.9 380.148 1241.22 380.413C1228.67 380.699 1200.74 382.525 1181.6 380.622C1181.6 380.622 1179.01 403.365 1183.19 425.811C1207.97 432.412 1245.88 433.2 1264.53 429.775C1283.17 426.351 1292.68 425.591 1307.9 422.547C1319.28 420.27 1323.43 401.808 1325.11 385.485C1313.18 374.639 1305.51 368.265 1289.45 369.362Z" fill="white"/>
<path d="M1276.96 373.913C1276.96 373.913 1301.21 367.855 1315.98 383.472C1311.55 371.443 1294.08 361.61 1276.96 373.913Z" fill="#F0F6F7"/>
<path d="M1196.8 230.101C1196.8 230.101 1179.34 243.152 1169.64 274.173C1180.5 276.389 1186.21 278.59 1186.21 278.59L1168.9 287.665C1168.9 287.665 1179.66 311.313 1215.32 314.894C1220.92 314.043 1220.92 314.043 1220.92 314.043C1220.92 314.043 1183.13 275.943 1196.8 230.101Z" fill="#DFEEEF"/>
<path d="M1196.8 230.101C1196.8 230.101 1178.61 238.705 1168.9 269.726C1179.76 271.942 1186.21 278.59 1186.21 278.59H1168.9C1168.9 278.59 1179.66 311.313 1215.32 314.894C1220.91 314.043 1220.91 314.043 1220.91 314.043C1220.91 314.043 1187.83 280.684 1194.78 238.837C1195.1 236.892 1195.75 235.321 1196.19 233.078C1196.35 232.288 1196.62 231.029 1196.8 230.101Z" fill="#F0F6F7"/>
<path d="M1240.58 234.416C1240.58 234.416 1247.22 239.213 1252.69 246.556C1258.16 253.9 1262.25 274.475 1262.31 280.174C1253.29 281.957 1244.45 282.601 1244.45 282.601L1263.33 295.685C1263.33 295.685 1232.42 318.687 1212.37 325.652C1192.32 332.616 1192.32 353.718 1192.32 353.718C1192.32 353.718 1190.85 326.073 1211.74 307.08C1232.63 288.086 1244.24 263.854 1240.58 234.416Z" fill="#DFEEEF"/>
<path d="M1240.58 234.416C1240.58 234.416 1247.22 239.213 1252.69 246.556C1258.16 253.9 1262.25 270.149 1262.31 275.848C1253.29 277.632 1244.45 282.601 1244.45 282.601L1262.31 290.046C1262.31 290.046 1232.42 318.687 1212.37 325.652C1192.32 332.616 1192.32 353.718 1192.32 353.718C1192.32 353.718 1190.84 326.073 1211.74 307.08C1232.63 288.086 1244.23 263.854 1240.58 234.416Z" fill="#F0F6F7"/>
<path d="M1184.96 422.776C1184.02 422.487 1183.19 421.984 1182.45 421.367C1182.67 422.846 1182.92 424.329 1183.19 425.811C1183.78 425.967 1184.38 426.117 1184.98 426.267C1185.32 426.352 1185.68 426.44 1186.05 426.529C1210.8 432.463 1246.58 433.07 1264.53 429.775C1271.54 428.486 1277.27 427.574 1282.49 426.776C1235.48 431.165 1190.63 424.517 1184.96 422.776Z" fill="#F0F6F7"/>
<path d="M1244.97 461.553L1298.48 459.338L1300.69 471.05L1244.97 473.265V461.553Z" fill="#F0F6F7"/>
<path d="M1138.94 463.874C1141.47 463.557 1189.03 463.657 1189.03 463.657V474.103L1137.04 475.509L1138.94 463.874Z" fill="#F0F6F7"/>
<path d="M1137.39 463.642C1137.39 463.642 1155.69 460.907 1189.03 463.657C1171.31 464.93 1145.68 465.521 1137.39 463.642Z" fill="#DFEEEF"/>
<path d="M1244.97 461.553C1244.97 461.553 1279.41 458.388 1298.48 459.338C1290.96 462.608 1260.82 463.031 1244.97 461.553Z" fill="#DFEEEF"/>
<path d="M1138.61 367.03C1138.61 367.03 1135.77 334.935 1112.34 325.122C1126.59 327.338 1144 348.953 1138.61 367.03Z" fill="#F0F6F7"/>
<path d="M1174.87 259.132C1170.97 274.121 1174.33 288.061 1179.26 300.281C1179.61 299.553 1180.24 299.066 1180.97 298.825C1176.32 287.1 1173.24 273.816 1176.92 259.666C1181.42 242.394 1191.26 233.532 1196.84 229.699L1197.14 226.611C1191.88 229.751 1180.14 238.915 1174.87 259.132Z" fill="#07003D"/>
<path d="M1196.55 376.56C1195.99 376.645 1195.45 376.261 1195.35 375.692C1195.25 375.115 1195.64 374.566 1196.22 374.466C1199.71 373.859 1202.59 372.639 1202.73 371.996C1202.76 369.969 1198.13 326.728 1196.34 317.122C1194.95 309.678 1191.61 300.632 1183.6 299.808C1180.69 299.511 1177.98 300.357 1175.77 302.259C1172.51 305.049 1170.56 309.801 1170.26 315.636C1169.66 327.525 1173.45 371.903 1174.92 374.55C1175.84 375.612 1179.79 375.95 1182.28 375.831C1182.87 375.803 1183.37 376.254 1183.39 376.84C1183.42 377.425 1182.98 377.915 1182.39 377.95C1181.21 378.007 1175.24 378.172 1173.26 375.864C1171.01 373.246 1167.65 325.26 1168.14 315.53C1168.47 309.108 1170.68 303.822 1174.38 300.65C1177.05 298.36 1180.32 297.341 1183.82 297.701C1191.18 298.459 1196.24 305.042 1198.42 316.736C1200.23 326.399 1204.88 369.976 1204.85 372.034C1204.82 374.832 1199.05 376.131 1196.58 376.56C1196.57 376.558 1196.56 376.558 1196.55 376.56Z" fill="#07003D"/>
<path d="M1179.19 376.329C1179.19 376.329 1179.25 375.349 1180.05 375.33C1180.85 375.311 1183.11 375.177 1183.68 375.66C1184.26 376.144 1184.07 378.243 1183.72 378.584C1183.36 378.924 1180.74 378.644 1179.97 378.659C1179.2 378.673 1179.08 377.183 1179.19 376.329Z" fill="#66657A"/>
<path d="M1199.44 373.99C1199.44 373.99 1199.2 373.224 1198.43 373.439C1197.66 373.655 1195.36 374.028 1194.95 374.658C1194.54 375.288 1195.33 377.133 1195.76 377.356C1196.2 377.579 1198.63 376.656 1199.37 376.446C1200.11 376.236 1199.79 374.775 1199.44 373.99Z" fill="#66657A"/>
<path d="M1183.87 297.171C1180.22 296.795 1176.83 297.86 1174.04 300.244C1170.23 303.513 1167.95 308.931 1167.61 315.5C1167.58 316.177 1167.57 317.136 1167.58 318.283L1170.74 318.022C1170.74 317.134 1170.76 316.333 1170.79 315.662C1171.08 309.973 1172.97 305.357 1176.11 302.66C1178.22 300.854 1180.79 300.05 1183.55 300.335C1190.79 301.08 1194.08 308.974 1195.57 315.966L1198.75 315.702C1196.42 304.346 1191.3 297.936 1183.87 297.171Z" fill="#66657A"/>
<path d="M1272.88 282.011C1261.63 237.573 1244.92 229.725 1238.58 228.38L1239.17 230.691C1245.4 232.537 1260.39 241.31 1270.83 282.532C1276.3 304.14 1277.38 322.255 1276.72 336.201H1278.83C1279.49 322.068 1278.39 303.778 1272.88 282.011Z" fill="#07003D"/>
<path d="M1278.31 343.615C1282.55 343.615 1286 340.172 1286 335.925C1286 331.679 1282.55 328.236 1278.31 328.236C1274.06 328.236 1270.62 331.679 1270.62 335.925C1270.62 340.172 1274.06 343.615 1278.31 343.615Z" fill="#66657A"/>
<path d="M1278.31 340.432C1280.79 340.432 1282.81 338.414 1282.81 335.925C1282.81 333.436 1280.79 331.419 1278.31 331.419C1275.82 331.419 1273.8 333.436 1273.8 335.925C1273.8 338.414 1275.82 340.432 1278.31 340.432Z" fill="#8C8C9B"/>
</g>
<path d="M908 557.517L1328 506V573L908 624.517V557.517Z" fill="#57D5EA"/>
<defs>
<filter id="filter0_f_2402_8667" x="804" y="-119" width="856" height="828" filterUnits="userSpaceOnUse" color-interpolation-filters="sRGB">
<feFlood flood-opacity="0" result="BackgroundImageFix"/>
<feBlend mode="normal" in="SourceGraphic" in2="BackgroundImageFix" result="shape"/>
<feGaussianBlur stdDeviation="150" result="effect1_foregroundBlur_2402_8667"/>
</filter>
<linearGradient id="paint0_linear_2402_8667" x1="595" y1="-344.098" x2="696.896" y2="738.175" gradientUnits="userSpaceOnUse">
<stop offset="0.291667" stop-color="white" stop-opacity="0"/>
<stop offset="0.875" stop-color="white" stop-opacity="0"/>
<stop offset="0.895833" stop-color="#2F3036"/>
</linearGradient>
<clipPath id="clip0_2402_8667">
<rect width="1440" height="735" fill="white"/>
</clipPath>
</defs>
</svg>
